<svg width="27" height="24" viewBox="0 0 27 24" fill="none" xmlns="http://www.w3.org/2000/svg">
<path d="M0.27351 11.6032L0.715917 11.8486C1.87013 12.489 3.16706 12.8401 4.49157 12.8708L7.43207 12.8904L13.6829 23.0987C13.7332 23.1809 13.8055 23.2481 13.8918 23.2931L15.1888 23.9685C15.3944 24.0755 15.6314 23.893 15.5742 23.6718L12.9792 13.6266C12.8925 13.2912 13.1532 12.9669 13.5055 12.9716L20.9595 13.0721C21.397 13.0775 21.8048 13.2919 22.052 13.6467L23.7306 16.0557C23.9271 16.3377 24.2273 16.5339 24.568 16.6031L25.5578 16.8039C25.6542 16.8235 25.7383 16.738 25.715 16.6442L24.8816 13.2799C24.8755 13.2553 24.8731 13.23 24.8743 13.2047L24.8886 12.9223C24.8947 12.8017 24.9836 12.7007 25.1044 12.6775L25.8937 12.5255C26.0364 12.4981 26.0383 12.2985 25.8962 12.2678L25.1541 12.1077C25.026 12.08 24.9368 11.9656 24.9433 11.8371L24.9567 11.5721C24.958 11.5468 24.9629 11.5219 24.9715 11.498L26.1392 8.23468C26.1717 8.14366 26.0966 8.05015 25.9988 8.05991L24.9938 8.16019C24.6479 8.1947 24.3295 8.35974 24.1056 8.6205L22.194 10.8474C21.9119 11.176 21.4836 11.3483 21.0471 11.3089L13.6632 10.651C13.3124 10.6198 13.0863 10.2711 13.2063 9.94641L16.75 0.354031C16.8292 0.13964 16.6118 -0.0658465 16.3965 0.0199684L15.035 0.562687C14.9466 0.597901 14.8695 0.65562 14.8115 0.729888L7.57792 9.99848L4.64514 9.82585C3.32427 9.72309 1.9986 9.94192 0.785806 10.4629L0.320948 10.6626C-0.083743 10.8365 -0.111636 11.3895 0.27351 11.6032Z" fill="#605DEC"/>
</svg>
