<svg width="320" height="180" viewBox="0 0 320 180" fill="none" xmlns="http://www.w3.org/2000/svg">
<path d="M67.3643 108.5H119C122.314 108.5 125 111.186 125 114.5C125 117.814 122.314 120.5 119 120.5H74.2506C70.0512 120.5 66.1387 118.322 63.913 114.761C62.2139 112.042 64.1584 108.5 67.3643 108.5Z" fill="url(#paint0_linear_0_4510)"/>
<path opacity="0.5" d="M118.994 120.5H74.1447C71.3148 120.5 68.6214 119.503 66.5 117.75H124.038C122.97 119.405 121.11 120.5 118.994 120.5Z" fill="#407AEA"/>
<path d="M85.4943 165.75H38C32.4772 165.75 28 161.273 28 155.75C28 150.227 32.4772 145.75 38 145.75H85.4943L122.719 69.2317C125.372 63.7797 126.75 57.7961 126.75 51.7331V24.5C126.75 18.9772 131.227 14.5 136.75 14.5H194V60.5L139 154.499H131V165.75H85.4943Z" fill="url(#paint1_linear_0_4510)"/>
<path opacity="0.5" d="M140.5 22.853V30.0861C140.5 35.6089 144.977 40.0861 150.5 40.0861H163.318C168.841 40.0861 173.318 35.6089 173.318 30.0861V22.853C173.318 19.3619 175.378 16.2887 178.5 14.5H145.682C142.56 16.2887 140.5 19.3619 140.5 22.853Z" fill="#D5FFFA"/>
<path opacity="0.5" d="M85.427 165.75H37.9327C34.0285 165.75 30.6468 163.513 29 160.25H130.933V165.75H85.427Z" fill="#1513A0"/>
<path fill-rule="evenodd" clip-rule="evenodd" d="M194.25 14.5C199.773 14.5 204.25 18.9772 204.25 24.5V51.7331C204.25 60.8276 202.183 69.803 198.204 77.981L160.979 154.499C157.631 161.382 150.648 165.75 142.994 165.75H95.5C89.9772 165.75 85.5 161.273 85.5 155.75C85.5 150.227 89.9772 145.75 95.5 145.75H142.994L180.219 69.2317C182.872 63.7797 184.25 57.7961 184.25 51.7331V24.5C184.25 18.9772 188.727 14.5 194.25 14.5Z" fill="url(#paint2_linear_0_4510)"/>
<path d="M155.283 154.273C153.715 157.471 150.445 159.5 146.86 159.5H111.683C109.097 159.5 107 157.42 107 154.854C107 152.289 109.097 150.209 111.683 150.209H146.86L152.781 138.973C153.582 137.452 155.16 136.5 156.879 136.5C160.353 136.5 162.591 140.182 160.992 143.265L155.283 154.273Z" fill="url(#paint3_linear_0_4510)"/>
<path d="M139.864 108.5H206.5C209.814 108.5 212.5 111.186 212.5 114.5C212.5 117.814 209.814 120.5 206.5 120.5H146.787C142.565 120.5 138.641 118.325 136.403 114.745C134.704 112.026 136.658 108.5 139.864 108.5Z" fill="url(#paint4_linear_0_4510)"/>
<path opacity="0.5" d="M206.494 120.5H146.645C143.815 120.5 141.121 119.503 139 117.75H211.538C210.47 119.405 208.61 120.5 206.494 120.5Z" fill="#407AEA"/>
<path d="M172.994 165.75H125.5C119.977 165.75 115.5 161.273 115.5 155.75C115.5 150.227 119.977 145.75 125.5 145.75H172.994L210.219 69.2317C212.872 63.7797 214.25 57.7961 214.25 51.7331V24.5C214.25 18.9772 218.727 14.5 224.25 14.5H281.5V60.5L226.5 154.499H218.5V165.75H172.994Z" fill="url(#paint5_linear_0_4510)"/>
<path d="M172.994 165.75H125.5C119.977 165.75 115.5 161.273 115.5 155.75C115.5 150.227 119.977 145.75 125.5 145.75H172.994L210.219 69.2317C212.872 63.7797 214.25 57.7961 214.25 51.7331V24.5C214.25 18.9772 218.727 14.5 224.25 14.5H281.5V60.5L226.5 154.499H218.5V165.75H172.994Z" fill="url(#paint6_linear_0_4510)"/>
<path opacity="0.5" d="M228 22.853V30.0861C228 35.6089 232.477 40.0861 238 40.0861H250.818C256.341 40.0861 260.818 35.6089 260.818 30.0861V22.853C260.818 19.3619 262.878 16.2887 266 14.5H233.182C230.06 16.2887 228 19.3619 228 22.853Z" fill="#D5FFFA"/>
<path opacity="0.5" d="M172.927 165.75H125.433C121.528 165.75 118.147 163.513 116.5 160.25H218.433V165.75H172.927Z" fill="#1513A0"/>
<path fill-rule="evenodd" clip-rule="evenodd" d="M281.75 14.5C287.273 14.5 291.75 18.9772 291.75 24.5V51.7331C291.75 60.8276 289.683 69.803 285.704 77.981L248.479 154.499C245.131 161.382 238.148 165.75 230.494 165.75H183C177.477 165.75 173 161.273 173 155.75C173 150.227 177.477 145.75 183 145.75H230.494L267.719 69.2317C270.372 63.7797 271.75 57.7961 271.75 51.7331V24.5C271.75 18.9772 276.227 14.5 281.75 14.5Z" fill="url(#paint7_linear_0_4510)"/>
<path fill-rule="evenodd" clip-rule="evenodd" d="M281.75 14.5C287.273 14.5 291.75 18.9772 291.75 24.5V51.7331C291.75 60.8276 289.683 69.803 285.704 77.981L248.479 154.499C245.131 161.382 238.148 165.75 230.494 165.75H183C177.477 165.75 173 161.273 173 155.75C173 150.227 177.477 145.75 183 145.75H230.494L267.719 69.2317C270.372 63.7797 271.75 57.7961 271.75 51.7331V24.5C271.75 18.9772 276.227 14.5 281.75 14.5Z" fill="url(#paint8_linear_0_4510)"/>
<path d="M242.783 154.273C241.215 157.471 237.945 159.5 234.36 159.5H199.183C196.597 159.5 194.5 157.42 194.5 154.854C194.5 152.289 196.597 150.209 199.183 150.209H234.36L240.281 138.973C241.082 137.452 242.66 136.5 244.379 136.5C247.853 136.5 250.091 140.182 248.492 143.265L242.783 154.273Z" fill="url(#paint9_linear_0_4510)"/>
<path d="M204.864 108.5H256.5C259.814 108.5 262.5 111.186 262.5 114.5C262.5 117.814 259.814 120.5 256.5 120.5H211.751C207.551 120.5 203.639 118.322 201.413 114.761C199.714 112.042 201.658 108.5 204.864 108.5Z" fill="url(#paint10_linear_0_4510)"/>
<path opacity="0.5" d="M256.5 120.5H211.651C208.821 120.5 206.127 119.503 204.006 117.75H261.544C260.476 119.405 258.616 120.5 256.5 120.5Z" fill="#407AEA"/>
<defs>
<linearGradient id="paint0_linear_0_4510" x1="86.4062" y1="108.5" x2="86.4062" y2="120.5" gradientUnits="userSpaceOnUse">
<stop stop-color="#BAECF7"/>
<stop offset="1" stop-color="#84DDF1"/>
</linearGradient>
<linearGradient id="paint1_linear_0_4510" x1="116" y1="14.5" x2="116" y2="165.75" gradientUnits="userSpaceOnUse">
<stop stop-color="#5CD6C0"/>
<stop offset="0.567708" stop-color="#70F2F2"/>
<stop offset="1" stop-color="#26AEF2"/>
</linearGradient>
<linearGradient id="paint2_linear_0_4510" x1="144.875" y1="14.5" x2="144.875" y2="165.75" gradientUnits="userSpaceOnUse">
<stop stop-color="#4A7DDF"/>
<stop offset="1" stop-color="#3595F4"/>
</linearGradient>
<linearGradient id="paint3_linear_0_4510" x1="160.25" y1="136.5" x2="106.25" y2="156" gradientUnits="userSpaceOnUse">
<stop stop-color="#CBD4E6"/>
<stop offset="0.321516" stop-color="#ACC5F6"/>
<stop offset="1" stop-color="#CBD4E6"/>
</linearGradient>
<linearGradient id="paint4_linear_0_4510" x1="165" y1="108.5" x2="165" y2="120.5" gradientUnits="userSpaceOnUse">
<stop stop-color="#BAECF7"/>
<stop offset="1" stop-color="#84DDF1"/>
</linearGradient>
<linearGradient id="paint5_linear_0_4510" x1="203.5" y1="14.5" x2="203.5" y2="165.75" gradientUnits="userSpaceOnUse">
<stop offset="0.0208333" stop-color="#9D8CF2"/>
<stop offset="0.567708" stop-color="#707FF2"/>
<stop offset="1" stop-color="#266AF2"/>
</linearGradient>
<linearGradient id="paint6_linear_0_4510" x1="203.5" y1="14.5" x2="203.5" y2="165.75" gradientUnits="userSpaceOnUse">
<stop stop-color="#5CD6C0"/>
<stop offset="0.567708" stop-color="#70F2F2"/>
<stop offset="1" stop-color="#26AEF2"/>
</linearGradient>
<linearGradient id="paint7_linear_0_4510" x1="232.375" y1="14.5" x2="232.375" y2="165.75" gradientUnits="userSpaceOnUse">
<stop stop-color="#4413A0"/>
<stop offset="0.520833" stop-color="#3D13A0"/>
<stop offset="1" stop-color="#1513A0"/>
</linearGradient>
<linearGradient id="paint8_linear_0_4510" x1="232.375" y1="14.5" x2="232.375" y2="165.75" gradientUnits="userSpaceOnUse">
<stop stop-color="#4A7DDF"/>
<stop offset="1" stop-color="#3595F4"/>
</linearGradient>
<linearGradient id="paint9_linear_0_4510" x1="247.75" y1="136.5" x2="193.75" y2="156" gradientUnits="userSpaceOnUse">
<stop stop-color="#CBD4E6"/>
<stop offset="0.321516" stop-color="#ACC5F6"/>
<stop offset="1" stop-color="#CBD4E6"/>
</linearGradient>
<linearGradient id="paint10_linear_0_4510" x1="223.906" y1="108.5" x2="223.906" y2="120.5" gradientUnits="userSpaceOnUse">
<stop stop-color="#BAECF7"/>
<stop offset="1" stop-color="#84DDF1"/>
</linearGradient>
</defs>
</svg>
