<svg width="80" height="17" viewBox="0 0 80 17" fill="none" xmlns="http://www.w3.org/2000/svg">
<path d="M8.31953 10.0098H3.35422L2.31538 12.9943H0L4.84205 0.176075H6.8405L11.6914 12.9943H9.36717L8.31953 10.0098ZM3.97929 8.21388H7.69446L5.83687 2.89643L3.97929 8.21388Z" fill="white"/>
<path d="M21.0652 8.32833C21.0652 9.80149 20.7306 10.9783 20.0616 11.8586C19.3925 12.7331 18.4945 13.1704 17.3676 13.1704C16.3229 13.1704 15.4865 12.827 14.8585 12.1403V16.6567H12.7192V3.46867H14.6913L14.7793 4.43708C15.4073 3.67409 16.2613 3.2926 17.3412 3.2926C18.5033 3.2926 19.413 3.72691 20.0704 4.59555C20.7336 5.45831 21.0652 6.65856 21.0652 8.19627V8.32833ZM18.9347 8.14345C18.9347 7.19265 18.7439 6.43846 18.3624 5.88089C17.9868 5.32332 17.4468 5.04454 16.7425 5.04454C15.868 5.04454 15.24 5.40549 14.8585 6.1274V10.3532C15.2459 11.0927 15.8798 11.4625 16.7602 11.4625C17.441 11.4625 17.9721 11.1895 18.3536 10.6437C18.741 10.092 18.9347 9.25859 18.9347 8.14345Z" fill="white"/>
<path d="M31.425 8.32833C31.425 9.80149 31.0905 10.9783 30.4214 11.8586C29.7523 12.7331 28.8543 13.1704 27.7275 13.1704C26.6827 13.1704 25.8464 12.827 25.2184 12.1403V16.6567H23.0791V3.46867H25.0511L25.1392 4.43708C25.7672 3.67409 26.6211 3.2926 27.701 3.2926C28.8631 3.2926 29.7729 3.72691 30.4302 4.59555C31.0934 5.45831 31.425 6.65856 31.425 8.19627V8.32833ZM29.2945 8.14345C29.2945 7.19265 29.1038 6.43846 28.7223 5.88089C28.3466 5.32332 27.8067 5.04454 27.1024 5.04454C26.2279 5.04454 25.5999 5.40549 25.2184 6.1274V10.3532C25.6058 11.0927 26.2396 11.4625 27.12 11.4625C27.8008 11.4625 28.332 11.1895 28.7135 10.6437C29.1008 10.092 29.2945 9.25859 29.2945 8.14345Z" fill="white"/>
<path d="M45.0401 9.69291C45.0401 9.12947 44.8405 8.69515 44.4414 8.38996C44.0482 8.08476 43.3351 7.77663 42.3021 7.46556C41.2692 7.1545 40.4475 6.80822 39.8371 6.42672C38.6691 5.69308 38.0851 4.73641 38.0851 3.55671C38.0851 2.52374 38.5048 1.67271 39.3441 1.00363C40.1892 0.334542 41.2838 0 42.6279 0C43.52 0 44.3152 0.164336 45.0137 0.493009C45.7121 0.821682 46.2609 1.29121 46.66 1.90161C47.0591 2.50613 47.2586 3.17815 47.2586 3.91766H45.0401C45.0401 3.24858 44.8288 2.72622 44.4062 2.3506C43.9895 1.9691 43.3909 1.77835 42.6103 1.77835C41.8825 1.77835 41.3161 1.93389 40.9111 2.24495C40.512 2.55602 40.3125 2.99033 40.3125 3.5479C40.3125 4.01744 40.5296 4.41067 40.964 4.7276C41.3983 5.03867 42.1143 5.34387 43.1121 5.64319C44.1098 5.93665 44.911 6.27413 45.5155 6.65562C46.12 7.03125 46.5631 7.46556 46.8449 7.95857C47.1266 8.44571 47.2674 9.01796 47.2674 9.6753C47.2674 10.7435 46.8566 11.5945 46.0349 12.2284C45.2191 12.8564 44.1098 13.1704 42.7071 13.1704C41.7798 13.1704 40.9258 13.0002 40.1452 12.6598C39.3705 12.3135 38.766 11.8381 38.3316 11.2336C37.9032 10.629 37.689 9.92474 37.689 9.12067H39.9163C39.9163 9.84844 40.157 10.4119 40.6382 10.811C41.1195 11.2101 41.8091 11.4096 42.7071 11.4096C43.4818 11.4096 44.0629 11.2541 44.4502 10.943C44.8435 10.6261 45.0401 10.2094 45.0401 9.69291Z" fill="white"/>
<path d="M51.896 1.15329V3.46867H53.5776V5.05334H51.896V10.3708C51.896 10.7347 51.9665 10.9988 52.1073 11.1631C52.2541 11.3216 52.5123 11.4008 52.8821 11.4008C53.1286 11.4008 53.378 11.3715 53.6304 11.3128V12.9679C53.1432 13.1029 52.6737 13.1704 52.2218 13.1704C50.5784 13.1704 49.7567 12.2636 49.7567 10.45V5.05334H48.1897V3.46867H49.7567V1.15329H51.896Z" fill="white"/>
<path d="M54.7551 8.14345C54.7551 7.21026 54.94 6.37097 55.3097 5.62558C55.6795 4.87433 56.1989 4.29916 56.868 3.90005C57.5371 3.49508 58.3059 3.2926 59.1746 3.2926C60.4599 3.2926 61.5017 3.70637 62.2999 4.53392C63.104 5.36147 63.5383 6.459 63.6029 7.82652L63.6117 8.32833C63.6117 9.2674 63.4297 10.1067 63.0658 10.8462C62.7078 11.5857 62.1913 12.158 61.5164 12.5629C60.8473 12.9679 60.0726 13.1704 59.1922 13.1704C57.8481 13.1704 56.7712 12.7243 55.9612 11.8322C55.1571 10.9342 54.7551 9.73986 54.7551 8.2491V8.14345ZM56.8944 8.32833C56.8944 9.30848 57.0969 10.0773 57.5019 10.6349C57.9068 11.1866 58.4703 11.4625 59.1922 11.4625C59.9141 11.4625 60.4746 11.1807 60.8737 10.6173C61.2787 10.0539 61.4812 9.22925 61.4812 8.14345C61.4812 7.18091 61.2728 6.41792 60.8561 5.85448C60.4452 5.29104 59.8847 5.00932 59.1746 5.00932C58.4761 5.00932 57.9215 5.28811 57.5107 5.84568C57.0998 6.39738 56.8944 7.22493 56.8944 8.32833Z" fill="white"/>
<path d="M70.6085 5.4231C70.3268 5.37615 70.0362 5.35267 69.7369 5.35267C68.7568 5.35267 68.0965 5.72829 67.7561 6.47955V12.9943H65.6168V3.46867H67.6592L67.712 4.53392C68.2285 3.70637 68.9446 3.2926 69.8602 3.2926C70.1654 3.2926 70.4177 3.33368 70.6173 3.41585L70.6085 5.4231Z" fill="white"/>
<path d="M76.1791 13.1704C74.8233 13.1704 73.7228 12.7449 72.8777 11.8938C72.0384 11.0369 71.6187 9.89833 71.6187 8.47799V8.21388C71.6187 7.26308 71.8007 6.41499 72.1646 5.6696C72.5343 4.91835 73.0508 4.33437 73.714 3.91766C74.3773 3.50095 75.1168 3.2926 75.9326 3.2926C77.2297 3.2926 78.2304 3.70637 78.9346 4.53392C79.6448 5.36147 79.9999 6.53237 79.9999 8.04661V8.90938H73.7757C73.8402 9.69584 74.1014 10.318 74.5592 10.7758C75.0229 11.2336 75.6039 11.4625 76.3023 11.4625C77.2825 11.4625 78.0807 11.0663 78.6969 10.274L79.8502 11.3744C79.4687 11.9437 78.9581 12.3869 78.3184 12.7038C77.6845 13.0149 76.9714 13.1704 76.1791 13.1704ZM75.9238 5.00932C75.3369 5.00932 74.8615 5.21474 74.4976 5.62558C74.1395 6.03643 73.9107 6.60867 73.8109 7.34231H77.887V7.18385C77.8401 6.46781 77.6493 5.92785 77.3148 5.56396C76.9802 5.1942 76.5166 5.00932 75.9238 5.00932Z" fill="white"/>
</svg>
