<svg width="17" height="16" viewBox="0 0 17 16" fill="none" xmlns="http://www.w3.org/2000/svg">
<path d="M7.80471 13.1888L7.8047 13.1888L4.09279 14.6982L4.38128 10.7016C4.41022 10.3007 4.28144 9.90434 4.02239 9.59703L1.43981 6.53322L5.33003 5.57255C5.72023 5.47619 6.05737 5.23124 6.2696 4.88991L8.38539 1.48696L10.5012 4.88991L11.374 4.34727L10.5012 4.88992C10.7134 5.23124 11.0505 5.47619 11.4408 5.57255L15.331 6.53322L12.7484 9.59703C12.4893 9.90434 12.3606 10.3007 12.3895 10.7016L12.678 14.6982L8.96608 13.1888L8.57895 14.1408L8.96607 13.1888C8.59375 13.0374 8.17703 13.0374 7.80471 13.1888ZM0.63745 6.73136L0.63808 6.7312C0.63787 6.73126 0.63766 6.73131 0.637449 6.73136L0.514257 6.23249L0.63745 6.73136Z" stroke="url(#paint0_linear_0_3018)" stroke-width="2"/>
<defs>
<linearGradient id="paint0_linear_0_3018" x1="8.38539" y1="-0.459408" x2="8.38539" y2="18.0394" gradientUnits="userSpaceOnUse">
<stop stop-color="#605DEC"/>
<stop offset="1" stop-color="#2A26D9"/>
</linearGradient>
</defs>
</svg>
