<svg width="17" height="16" viewBox="0 0 17 16" fill="none" xmlns="http://www.w3.org/2000/svg">
<path d="M7.94893 0.242545C8.14999 -0.0808277 8.62063 -0.0808285 8.82169 0.242545L11.3738 4.34732C11.4446 4.46109 11.557 4.54274 11.687 4.57486L16.3796 5.73366C16.7492 5.82495 16.8947 6.27256 16.6493 6.5637L13.534 10.2594C13.4477 10.3618 13.4048 10.4939 13.4144 10.6276L13.7624 15.4485C13.7898 15.8283 13.4091 16.1049 13.0563 15.9615L8.57887 14.1408C8.45476 14.0903 8.31585 14.0903 8.19175 14.1408L3.71429 15.9615C3.36156 16.1049 2.9808 15.8283 3.00821 15.4485L3.3562 10.6276C3.36585 10.4939 3.32292 10.3618 3.23658 10.2594L0.121363 6.5637C-0.124053 6.27256 0.0213832 5.82495 0.39106 5.73366L5.08359 4.57486C5.21366 4.54274 5.32604 4.46109 5.39678 4.34732L7.94893 0.242545Z" fill="url(#paint0_linear_0_3118)"/>
<defs>
<linearGradient id="paint0_linear_0_3118" x1="8.38531" y1="-0.45931" x2="8.38531" y2="18.0393" gradientUnits="userSpaceOnUse">
<stop stop-color="#605DEC"/>
<stop offset="1" stop-color="#2A26D9"/>
</linearGradient>
</defs>
</svg>
