<svg width="17" height="16" viewBox="0 0 17 16" fill="none" xmlns="http://www.w3.org/2000/svg">
<path d="M7.94888 0.242454C8.14994 -0.0809225 8.62059 -0.0809233 8.82165 0.242453L11.3738 4.34727C11.4446 4.46104 11.5569 4.54269 11.687 4.57481L16.3796 5.73362C16.7493 5.82491 16.8947 6.27252 16.6493 6.56367L13.534 10.2594C13.4477 10.3618 13.4048 10.4939 13.4144 10.6276L13.7624 15.4486C13.7898 15.8284 13.4091 16.105 13.0563 15.9616L8.57883 14.1408C8.45472 14.0904 8.31581 14.0904 8.1917 14.1408L3.7142 15.9616C3.36146 16.105 2.9807 15.8284 3.00812 15.4486L3.35611 10.6276C3.36576 10.4939 3.32283 10.3618 3.23648 10.2594L0.121239 6.56367C-0.12418 6.27252 0.021258 5.82491 0.390938 5.73362L5.08351 4.57481C5.21358 4.54269 5.32596 4.46104 5.3967 4.34727L7.94888 0.242454Z" fill="url(#paint0_linear_0_3443)"/>
<defs>
<linearGradient id="paint0_linear_0_3443" x1="8.38527" y1="-0.459408" x2="8.38527" y2="18.0394" gradientUnits="userSpaceOnUse">
<stop stop-color="#605DEC"/>
<stop offset="1" stop-color="#2A26D9"/>
</linearGradient>
</defs>
</svg>
