<svg width="76" height="8" viewBox="0 0 76 8" fill="none" xmlns="http://www.w3.org/2000/svg">
<path d="M0 7.11395H2.39104C4.506 7.11395 5.74835 5.79765 5.74835 3.55451V3.54465C5.74835 1.31137 4.49614 0 2.39104 0H0V7.11395ZM0.887395 6.3153V0.798656H2.33188C3.94398 0.798656 4.84124 1.77972 4.84124 3.55451V3.56437C4.84124 5.3293 3.94398 6.3153 2.33188 6.3153H0.887395Z" fill="white"/>
<path d="M9.24824 7.21255C10.6631 7.21255 11.6196 6.18712 11.6196 4.55037V4.54051C11.6196 2.90376 10.6582 1.88818 9.24331 1.88818C7.82841 1.88818 6.87199 2.90869 6.87199 4.54051V4.55037C6.87199 6.18219 7.82348 7.21255 9.24824 7.21255ZM9.25317 6.45334C8.34605 6.45334 7.74953 5.75821 7.74953 4.55037V4.54051C7.74953 3.34252 8.35098 2.6474 9.24331 2.6474C10.1504 2.6474 10.742 3.33759 10.742 4.54051V4.55037C10.742 5.75328 10.1554 6.45334 9.25317 6.45334Z" fill="white"/>
<path d="M13.9067 7.11395H14.7793L15.9329 3.14532H15.9526L17.1112 7.11395H17.9838L19.4135 1.98678H18.5655L17.5401 6.15754H17.5203L16.3569 1.98678H15.5286L14.3701 6.15754H14.3504L13.3249 1.98678H12.472L13.9067 7.11395Z" fill="white"/>
<path d="M20.5223 7.11395H21.3801V4.09681C21.3801 3.2242 21.9076 2.6474 22.7161 2.6474C23.5049 2.6474 23.8944 3.10588 23.8944 3.93905V7.11395H24.7522V3.78622C24.7522 2.61782 24.1015 1.88818 22.9774 1.88818C22.1985 1.88818 21.6759 2.23821 21.3998 2.71642H21.3801V1.98678H20.5223V7.11395Z" fill="white"/>
<path d="M26.2949 7.11395H27.1527V0H26.2949V7.11395Z" fill="white"/>
<path d="M30.84 7.21255C32.2549 7.21255 33.2113 6.18712 33.2113 4.55037V4.54051C33.2113 2.90376 32.2499 1.88818 30.835 1.88818C29.4201 1.88818 28.4637 2.90869 28.4637 4.54051V4.55037C28.4637 6.18219 29.4152 7.21255 30.84 7.21255ZM30.8449 6.45334C29.9378 6.45334 29.3412 5.75821 29.3412 4.55037V4.54051C29.3412 3.34252 29.9427 2.6474 30.835 2.6474C31.7421 2.6474 32.3337 3.33759 32.3337 4.54051V4.55037C32.3337 5.75328 31.7471 6.45334 30.8449 6.45334Z" fill="white"/>
<path d="M35.9815 7.21255C36.6668 7.21255 37.283 6.84281 37.5838 6.28079H37.6035V7.11395H38.4613V3.5693C38.4613 2.54387 37.7021 1.88818 36.4893 1.88818C35.2815 1.88818 34.5469 2.56852 34.4729 3.41154L34.468 3.46577H35.2963L35.3061 3.4214C35.4047 2.96291 35.8188 2.6474 36.4794 2.6474C37.1943 2.6474 37.6035 3.027 37.6035 3.65311V4.08202L36.1344 4.16583C34.9561 4.23485 34.2758 4.78208 34.2758 5.65468V5.66454C34.2758 6.59631 34.961 7.21255 35.9815 7.21255ZM35.1533 5.66454V5.65468C35.1533 5.17647 35.5477 4.87082 36.233 4.83138L37.6035 4.74757V5.16661C37.6035 5.91104 36.9823 6.46813 36.1738 6.46813C35.5575 6.46813 35.1533 6.15754 35.1533 5.66454Z" fill="white"/>
<path d="M41.8823 7.21255C42.6169 7.21255 43.1887 6.84281 43.5092 6.24628H43.5289V7.11395H44.3867V0H43.5289V2.8446H43.5092C43.1887 2.253 42.5922 1.88818 41.8675 1.88818C40.5808 1.88818 39.7033 2.92841 39.7033 4.54544V4.55037C39.7033 6.1674 40.5709 7.21255 41.8823 7.21255ZM42.0499 6.45334C41.1428 6.45334 40.5808 5.72863 40.5808 4.55037V4.54544C40.5808 3.37703 41.1428 2.6474 42.0499 2.6474C42.9127 2.6474 43.5338 3.40168 43.5338 4.54544V4.55037C43.5338 5.69905 42.9176 6.45334 42.0499 6.45334Z" fill="white"/>
<path d="M50.5484 7.21255C51.9633 7.21255 52.9197 6.18712 52.9197 4.55037V4.54051C52.9197 2.90376 51.9584 1.88818 50.5435 1.88818C49.1286 1.88818 48.1722 2.90869 48.1722 4.54051V4.55037C48.1722 6.18219 49.1236 7.21255 50.5484 7.21255ZM50.5533 6.45334C49.6462 6.45334 49.0497 5.75821 49.0497 4.55037V4.54051C49.0497 3.34252 49.6512 2.6474 50.5435 2.6474C51.4506 2.6474 52.0422 3.33759 52.0422 4.54051V4.55037C52.0422 5.75328 51.4555 6.45334 50.5533 6.45334Z" fill="white"/>
<path d="M54.1913 7.11395H55.0491V4.09681C55.0491 3.2242 55.5766 2.6474 56.3851 2.6474C57.1739 2.6474 57.5634 3.10588 57.5634 3.93905V7.11395H58.4212V3.78622C58.4212 2.61782 57.7704 1.88818 56.6464 1.88818C55.8675 1.88818 55.3449 2.23821 55.0688 2.71642H55.0491V1.98678H54.1913V7.11395Z" fill="white"/>
<path d="M64.0603 7.21255C64.2279 7.21255 64.4103 7.19283 64.5188 7.17804V6.48292C64.4448 6.48785 64.3462 6.50264 64.2427 6.50264C63.7842 6.50264 63.5426 6.34981 63.5426 5.80258V2.6967H64.5188V1.98678H63.5426V0.601457H62.6552V1.98678H61.9059V2.6967H62.6552V5.80751C62.6552 6.78858 63.1187 7.21255 64.0603 7.21255Z" fill="white"/>
<path d="M65.8889 7.11395H66.7467V4.12146C66.7467 3.24885 67.2742 2.6474 68.068 2.6474C68.8666 2.6474 69.3399 3.19462 69.3399 4.12146V7.11395H70.1977V3.97356C70.1977 2.73121 69.4533 1.88818 68.3638 1.88818C67.5996 1.88818 67.0425 2.22835 66.7664 2.80516H66.7467V0H65.8889V7.11395Z" fill="white"/>
<path d="M73.8011 7.21255C74.9202 7.21255 75.7583 6.54208 75.926 5.69412L75.9358 5.64482H75.0928L75.078 5.68919C74.9301 6.12796 74.4716 6.45334 73.8209 6.45334C72.9088 6.45334 72.3271 5.83709 72.3073 4.78208H75.9999V4.46656C75.9999 2.92841 75.147 1.88818 73.7469 1.88818C72.3468 1.88818 71.4397 2.9777 71.4397 4.56516V4.57009C71.4397 6.18219 72.3271 7.21255 73.8011 7.21255ZM73.742 2.6474C74.4913 2.6474 75.0435 3.11574 75.1273 4.1116H72.3221C72.4158 3.15518 72.9975 2.6474 73.742 2.6474Z" fill="white"/>
</svg>
