<svg width="17" height="16" viewBox="0 0 17 16" fill="none" xmlns="http://www.w3.org/2000/svg">
<path d="M7.80451 13.1888L7.8045 13.1888L4.09262 14.6982L4.38111 10.7016C4.41005 10.3007 4.28127 9.90434 4.02223 9.59703L1.43967 6.53325L5.32985 5.57259C5.72005 5.47623 6.05719 5.23129 6.26941 4.88996L8.38518 1.48704L10.501 4.88996L11.3737 4.34732L10.501 4.88996C10.7132 5.23128 11.0503 5.47623 11.4405 5.57259L15.3307 6.53325L12.7481 9.59703C12.4891 9.90434 12.3603 10.3007 12.3893 10.7015L12.6777 14.6982L8.96587 13.1888L8.57874 14.1408L8.96586 13.1888C8.59354 13.0374 8.17682 13.0374 7.80451 13.1888ZM0.637318 6.73139L0.637948 6.73123C0.637738 6.73128 0.637528 6.73134 0.637318 6.73139L0.514126 6.23252L0.637318 6.73139Z" stroke="url(#paint0_linear_0_3384)" stroke-width="2"/>
<defs>
<linearGradient id="paint0_linear_0_3384" x1="8.38518" y1="-0.45931" x2="8.38518" y2="18.0393" gradientUnits="userSpaceOnUse">
<stop stop-color="#605DEC"/>
<stop offset="1" stop-color="#2A26D9"/>
</linearGradient>
</defs>
</svg>
