<svg width="150" height="360" viewBox="0 0 150 360" fill="none" xmlns="http://www.w3.org/2000/svg">
<path d="M7.87379 16.6172C9.24585 7.27208 17.3104 0.5 26.771 0.5H75H122.654C132.359 0.5 140.575 7.63516 141.819 17.2535C144.773 40.1154 149.5 80.1822 149.5 102.5V102.504C149.5 134.98 149.5 187.632 121.53 264.83C113.894 285.905 102.157 309.63 92.3227 328.096C87.4066 337.327 82.9681 345.24 79.7589 350.845C78.1543 353.647 76.857 355.872 75.9611 357.396C75.5717 358.059 75.2581 358.589 75.028 358.976C74.8229 358.584 74.5443 358.051 74.1985 357.386C73.3947 355.84 72.2275 353.586 70.7744 350.751C67.868 345.082 63.8181 337.091 59.2436 327.807C50.0937 309.236 38.85 285.499 30.4634 264.812C0.499983 190.902 0.499992 148.477 0.5 102.508V102.5C0.500005 71.9687 4.91171 36.7919 7.87379 16.6172Z" fill="#EAEBFF" stroke="#BFC8D9"/>
</svg>
