<svg width="17" height="16" viewBox="0 0 17 16" fill="none" xmlns="http://www.w3.org/2000/svg">
<path d="M7.80463 13.1888L7.80463 13.1888L4.09274 14.6982L4.38123 10.7016C4.41017 10.3007 4.28139 9.90434 4.02236 9.59703L1.43979 6.53325L5.32997 5.57259C5.72018 5.47623 6.05731 5.23129 6.26954 4.88996L8.38531 1.48704L10.5011 4.88996L11.3738 4.34732L10.5011 4.88996C10.7133 5.23128 11.0504 5.47623 11.4406 5.57259L15.3308 6.53325L12.7483 9.59703C12.4892 9.90434 12.3604 10.3007 12.3894 10.7015L12.6779 14.6982L8.96599 13.1888L8.57887 14.1408L8.96599 13.1888C8.59367 13.0374 8.17695 13.0374 7.80463 13.1888ZM0.637443 6.73139L0.638073 6.73123C0.637863 6.73128 0.637653 6.73134 0.637443 6.73139L0.514252 6.23252L0.637443 6.73139Z" stroke="url(#paint0_linear_0_3140)" stroke-width="2"/>
<defs>
<linearGradient id="paint0_linear_0_3140" x1="8.38531" y1="-0.45931" x2="8.38531" y2="18.0393" gradientUnits="userSpaceOnUse">
<stop stop-color="#605DEC"/>
<stop offset="1" stop-color="#2A26D9"/>
</linearGradient>
</defs>
</svg>
