<svg width="17" height="16" viewBox="0 0 17 16" fill="none" xmlns="http://www.w3.org/2000/svg">
<path d="M7.9488 0.242545C8.14986 -0.0808277 8.62051 -0.0808285 8.82156 0.242545L11.3737 4.34732C11.4445 4.46109 11.5568 4.54274 11.6869 4.57486L16.3794 5.73366C16.7491 5.82495 16.8945 6.27256 16.6491 6.5637L13.5339 10.2594C13.4476 10.3618 13.4046 10.4939 13.4143 10.6276L13.7623 15.4485C13.7897 15.8283 13.4089 16.1049 13.0562 15.9615L8.57874 14.1408C8.45464 14.0903 8.31573 14.0903 8.19162 14.1408L3.71416 15.9615C3.36143 16.1049 2.98067 15.8283 3.00809 15.4485L3.35608 10.6276C3.36572 10.4939 3.3228 10.3618 3.23645 10.2594L0.121237 6.5637C-0.124178 6.27256 0.0212578 5.82495 0.390934 5.73366L5.08346 4.57486C5.21353 4.54274 5.32591 4.46109 5.39665 4.34732L7.9488 0.242545Z" fill="url(#paint0_linear_0_3360)"/>
<defs>
<linearGradient id="paint0_linear_0_3360" x1="8.38518" y1="-0.45931" x2="8.38518" y2="18.0393" gradientUnits="userSpaceOnUse">
<stop stop-color="#605DEC"/>
<stop offset="1" stop-color="#2A26D9"/>
</linearGradient>
</defs>
</svg>
