<svg width="17" height="16" viewBox="0 0 17 16" fill="none" xmlns="http://www.w3.org/2000/svg">
<path d="M7.80458 13.1888L7.80458 13.1888L4.09266 14.6982L4.38115 10.7016C4.41009 10.3007 4.28131 9.90434 4.02227 9.59703L1.43968 6.53322L5.3299 5.57255C5.72011 5.47619 6.05725 5.23124 6.26947 4.88991L8.38527 1.48696L10.5011 4.88991L11.3738 4.34727L10.5011 4.88992C10.7133 5.23124 11.0504 5.47619 11.4406 5.57255L15.3308 6.53322L12.7483 9.59703C12.4892 9.90434 12.3604 10.3007 12.3894 10.7016L12.6779 14.6982L8.96595 13.1888L8.57883 14.1408L8.96595 13.1888C8.59363 13.0374 8.1769 13.0374 7.80458 13.1888ZM0.637324 6.73136L0.637954 6.7312C0.637744 6.73126 0.637534 6.73131 0.637324 6.73136L0.514131 6.23249L0.637324 6.73136Z" stroke="url(#paint0_linear_0_3201)" stroke-width="2"/>
<defs>
<linearGradient id="paint0_linear_0_3201" x1="8.38527" y1="-0.459408" x2="8.38527" y2="18.0394" gradientUnits="userSpaceOnUse">
<stop stop-color="#605DEC"/>
<stop offset="1" stop-color="#2A26D9"/>
</linearGradient>
</defs>
</svg>
