<svg width="320" height="180" viewBox="0 0 320 180" fill="none" xmlns="http://www.w3.org/2000/svg">
<path d="M34.8643 108.5H86.5C89.8137 108.5 92.5 111.186 92.5 114.5C92.5 117.814 89.8137 120.5 86.5 120.5H41.7506C37.5512 120.5 33.6387 118.322 31.413 114.761C29.7139 112.042 31.6584 108.5 34.8643 108.5Z" fill="url(#paint0_linear_0_4289)"/>
<path opacity="0.5" d="M86.4937 120.5H41.6447C38.8148 120.5 36.1214 119.503 34 117.75H91.5381C90.4699 119.405 88.6097 120.5 86.4937 120.5Z" fill="#407AEA"/>
<path d="M62.9943 165.75H15.5C9.97715 165.75 5.5 161.273 5.5 155.75C5.5 150.227 9.97715 145.75 15.5 145.75H62.9943L100.219 69.2317C102.872 63.7797 104.25 57.7961 104.25 51.7331V24.5C104.25 18.9772 108.727 14.5 114.25 14.5H161.5V60.5L116.5 154.499H108.5V165.75H62.9943Z" fill="url(#paint1_linear_0_4289)"/>
<path opacity="0.5" d="M115.5 22.853V30.0861C115.5 35.6089 119.977 40.0861 125.5 40.0861H134C139.523 40.0861 144 35.6089 144 30.0861V22.853C144 19.3619 145.789 16.2887 148.5 14.5H120C117.289 16.2887 115.5 19.3619 115.5 22.853Z" fill="#BCBAF7"/>
<path opacity="0.5" d="M62.9944 165.75H15.5001C11.5959 165.75 8.2142 163.513 6.56738 160.25H108.5V165.75H62.9944Z" fill="#1513A0"/>
<path fill-rule="evenodd" clip-rule="evenodd" d="M161.75 14.5C167.273 14.5 171.75 18.9772 171.75 24.5V51.7331C171.75 60.8275 169.683 69.803 165.704 77.981L128.479 154.499C125.131 161.382 118.148 165.75 110.494 165.75H63C57.4772 165.75 53 161.273 53 155.75C53 150.227 57.4772 145.75 63 145.75H110.494L147.719 69.2317C150.372 63.7797 151.75 57.7961 151.75 51.7331V24.5C151.75 18.9772 156.227 14.5 161.75 14.5Z" fill="url(#paint2_linear_0_4289)"/>
<path d="M122.783 154.273C121.215 157.471 117.945 159.5 114.36 159.5H79.1833C76.5968 159.5 74.5 157.42 74.5 154.854C74.5 152.289 76.5968 150.209 79.1833 150.209H114.36L120.281 138.973C121.082 137.452 122.66 136.5 124.379 136.5C127.853 136.5 130.091 140.182 128.492 143.265L122.783 154.273Z" fill="url(#paint3_linear_0_4289)"/>
<path d="M84.8643 108.5H136.5C139.814 108.5 142.5 111.186 142.5 114.5C142.5 117.814 139.814 120.5 136.5 120.5H91.7506C87.5512 120.5 83.6387 118.322 81.413 114.761C79.7139 112.042 81.6584 108.5 84.8643 108.5Z" fill="url(#paint4_linear_0_4289)"/>
<path opacity="0.5" d="M136.5 120.5H91.651C88.8211 120.5 86.1277 119.503 84.0063 117.75H141.544C140.476 119.405 138.616 120.5 136.5 120.5Z" fill="#407AEA"/>
<path d="M110.279 108.5H160.133C163.447 108.5 166.133 111.186 166.133 114.5C166.133 117.814 163.447 120.5 160.133 120.5H117.004C112.881 120.5 109.058 118.347 106.92 114.821L106.816 114.649C105.18 111.95 107.123 108.5 110.279 108.5Z" fill="url(#paint5_linear_0_4289)"/>
<path opacity="0.5" d="M160.308 120.5H116.807C114.063 120.5 111.45 119.503 109.393 117.75H165.2C164.164 119.405 162.36 120.5 160.308 120.5Z" fill="#407AEA"/>
<path d="M137.515 165.75H91.4492C86.0925 165.75 81.75 161.273 81.75 155.75C81.75 150.227 86.0925 145.75 91.4492 145.75H137.515L173.621 69.2317C176.193 63.7797 177.53 57.7961 177.53 51.7331V24.5C177.53 18.9772 181.873 14.5 187.229 14.5H233.058V60.5L189.412 154.499H181.652V165.75H137.515Z" fill="url(#paint6_linear_0_4289)"/>
<path opacity="0.5" d="M188.441 22.853V30.0861C188.441 35.6089 192.919 40.0861 198.441 40.0861H206.084C211.607 40.0861 216.084 35.6089 216.084 30.0861V22.853C216.084 19.3619 217.819 16.2887 220.449 14.5H192.806C190.176 16.2887 188.441 19.3619 188.441 22.853Z" fill="#BCBAF7"/>
<path opacity="0.5" d="M137.515 165.75H91.4492C87.6624 165.75 84.3824 163.513 82.7852 160.25H181.652V165.75H137.515Z" fill="#1513A0"/>
<path fill-rule="evenodd" clip-rule="evenodd" d="M233.301 14.5C238.657 14.5 243 18.9772 243 24.5V51.7331C243 60.8275 240.995 69.803 237.136 77.981L201.03 154.499C197.783 161.382 191.01 165.75 183.586 165.75H137.521C132.164 165.75 127.821 161.273 127.821 155.75C127.821 150.227 132.164 145.75 137.521 145.75H183.586L219.692 69.2317C222.265 63.7797 223.601 57.7961 223.601 51.7331V24.5C223.601 18.9772 227.944 14.5 233.301 14.5Z" fill="url(#paint7_linear_0_4289)"/>
<path d="M195.506 154.273C193.985 157.471 190.813 159.5 187.336 159.5H153.217C150.709 159.5 148.675 157.42 148.675 154.854C148.675 152.289 150.709 150.209 153.217 150.209H187.336L193.083 138.964C193.856 137.452 195.411 136.5 197.11 136.5C200.476 136.5 202.662 140.046 201.149 143.054L195.506 154.273Z" fill="url(#paint8_linear_0_4289)"/>
<path d="M166.98 108.5H231.384C234.697 108.5 237.384 111.186 237.384 114.5C237.384 117.814 234.697 120.5 231.384 120.5H173.906C169.658 120.5 165.719 118.281 163.517 114.649C161.881 111.95 163.824 108.5 166.98 108.5Z" fill="url(#paint9_linear_0_4289)"/>
<path opacity="0.5" d="M231.558 120.5H173.509C170.764 120.5 168.151 119.503 166.094 117.75H236.45C235.414 119.405 233.61 120.5 231.558 120.5Z" fill="#407AEA"/>
<path d="M208.765 165.75H162.699C157.343 165.75 153 161.273 153 155.75C153 150.227 157.343 145.75 162.699 145.75H208.765L244.871 69.2317C247.443 63.7797 248.78 57.7961 248.78 51.7331V24.5C248.78 18.9772 253.123 14.5 258.479 14.5H304.308V60.5L260.662 154.499H252.902V165.75H208.765Z" fill="url(#paint10_linear_0_4289)"/>
<path opacity="0.5" d="M259.691 22.853V30.0861C259.691 35.6089 264.169 40.0861 269.691 40.0861H277.334C282.857 40.0861 287.334 35.6089 287.334 30.0861V22.853C287.334 19.3619 289.069 16.2887 291.699 14.5H264.056C261.426 16.2887 259.691 19.3619 259.691 22.853Z" fill="#BCBAF7"/>
<path opacity="0.5" d="M208.765 165.75H162.699C158.912 165.75 155.632 163.513 154.035 160.25H252.902V165.75H208.765Z" fill="#1513A0"/>
<path fill-rule="evenodd" clip-rule="evenodd" d="M304.551 14.5C309.907 14.5 314.25 18.9772 314.25 24.5V51.7331C314.25 60.8275 312.245 69.803 308.386 77.981L272.28 154.499C269.033 161.382 262.26 165.75 254.836 165.75H208.771C203.414 165.75 199.071 161.273 199.071 155.75C199.071 150.227 203.414 145.75 208.771 145.75H254.836L290.942 69.2317C293.515 63.7797 294.851 57.7961 294.851 51.7331V24.5C294.851 18.9772 299.194 14.5 304.551 14.5Z" fill="url(#paint11_linear_0_4289)"/>
<path d="M266.756 154.273C265.235 157.471 262.063 159.5 258.586 159.5H224.467C221.959 159.5 219.925 157.42 219.925 154.854C219.925 152.289 221.959 150.209 224.467 150.209H258.586L264.333 138.964C265.106 137.452 266.661 136.5 268.36 136.5C271.726 136.5 273.912 140.046 272.399 143.054L266.756 154.273Z" fill="url(#paint12_linear_0_4289)"/>
<path d="M230.025 108.5H279.88C283.193 108.5 285.88 111.186 285.88 114.5C285.88 117.814 283.193 120.5 279.88 120.5H236.75C232.627 120.5 228.804 118.347 226.666 114.821L226.562 114.649C224.926 111.95 226.869 108.5 230.025 108.5Z" fill="url(#paint13_linear_0_4289)"/>
<path opacity="0.5" d="M280.06 120.5H236.56C233.815 120.5 231.203 119.503 229.145 117.75H284.953C283.917 119.405 282.112 120.5 280.06 120.5Z" fill="#407AEA"/>
<defs>
<linearGradient id="paint0_linear_0_4289" x1="60" y1="108.5" x2="60" y2="120.5" gradientUnits="userSpaceOnUse">
<stop stop-color="#BCBAF7"/>
<stop offset="1" stop-color="#8684F1"/>
</linearGradient>
<linearGradient id="paint1_linear_0_4289" x1="83.5" y1="14.5" x2="83.5" y2="165.75" gradientUnits="userSpaceOnUse">
<stop offset="0.0208333" stop-color="#9D8CF2"/>
<stop offset="0.567708" stop-color="#707FF2"/>
<stop offset="1" stop-color="#266AF2"/>
</linearGradient>
<linearGradient id="paint2_linear_0_4289" x1="112.375" y1="14.5" x2="112.375" y2="165.75" gradientUnits="userSpaceOnUse">
<stop stop-color="#4413A0"/>
<stop offset="0.520833" stop-color="#3D13A0"/>
<stop offset="1" stop-color="#1513A0"/>
</linearGradient>
<linearGradient id="paint3_linear_0_4289" x1="127.75" y1="136.5" x2="73.75" y2="156" gradientUnits="userSpaceOnUse">
<stop stop-color="#CBD4E6"/>
<stop offset="0.321516" stop-color="#ACC5F6"/>
<stop offset="1" stop-color="#CBD4E6"/>
</linearGradient>
<linearGradient id="paint4_linear_0_4289" x1="110" y1="108.5" x2="110" y2="120.5" gradientUnits="userSpaceOnUse">
<stop stop-color="#BCBAF7"/>
<stop offset="1" stop-color="#8684F1"/>
</linearGradient>
<linearGradient id="paint5_linear_0_4289" x1="134.611" y1="108.5" x2="134.611" y2="120.5" gradientUnits="userSpaceOnUse">
<stop stop-color="#BCBAF7"/>
<stop offset="1" stop-color="#8684F1"/>
</linearGradient>
<linearGradient id="paint6_linear_0_4289" x1="157.404" y1="14.5" x2="157.404" y2="165.75" gradientUnits="userSpaceOnUse">
<stop offset="0.0208333" stop-color="#9D8CF2"/>
<stop offset="0.567708" stop-color="#707FF2"/>
<stop offset="1" stop-color="#266AF2"/>
</linearGradient>
<linearGradient id="paint7_linear_0_4289" x1="185.411" y1="14.5" x2="185.411" y2="165.75" gradientUnits="userSpaceOnUse">
<stop stop-color="#4413A0"/>
<stop offset="0.520833" stop-color="#3D13A0"/>
<stop offset="1" stop-color="#1513A0"/>
</linearGradient>
<linearGradient id="paint8_linear_0_4289" x1="200.323" y1="136.5" x2="147.587" y2="154.971" gradientUnits="userSpaceOnUse">
<stop stop-color="#CBD4E6"/>
<stop offset="0.321516" stop-color="#ACC5F6"/>
<stop offset="1" stop-color="#CBD4E6"/>
</linearGradient>
<linearGradient id="paint9_linear_0_4289" x1="191.312" y1="108.5" x2="191.312" y2="120.5" gradientUnits="userSpaceOnUse">
<stop stop-color="#BCBAF7"/>
<stop offset="1" stop-color="#8684F1"/>
</linearGradient>
<linearGradient id="paint10_linear_0_4289" x1="228.654" y1="14.5" x2="228.654" y2="165.75" gradientUnits="userSpaceOnUse">
<stop offset="0.0208333" stop-color="#9D8CF2"/>
<stop offset="0.567708" stop-color="#707FF2"/>
<stop offset="1" stop-color="#266AF2"/>
</linearGradient>
<linearGradient id="paint11_linear_0_4289" x1="256.661" y1="14.5" x2="256.661" y2="165.75" gradientUnits="userSpaceOnUse">
<stop stop-color="#4413A0"/>
<stop offset="0.520833" stop-color="#3D13A0"/>
<stop offset="1" stop-color="#1513A0"/>
</linearGradient>
<linearGradient id="paint12_linear_0_4289" x1="271.573" y1="136.5" x2="218.837" y2="154.971" gradientUnits="userSpaceOnUse">
<stop stop-color="#CBD4E6"/>
<stop offset="0.321516" stop-color="#ACC5F6"/>
<stop offset="1" stop-color="#CBD4E6"/>
</linearGradient>
<linearGradient id="paint13_linear_0_4289" x1="254.357" y1="108.5" x2="254.357" y2="120.5" gradientUnits="userSpaceOnUse">
<stop stop-color="#BCBAF7"/>
<stop offset="1" stop-color="#8684F1"/>
</linearGradient>
</defs>
</svg>
